<?xml version="1.0" standalone="no"?>
<!DOCTYPE svg PUBLIC "-//W3C//DTD SVG 1.1//EN" "http://www.w3.org/Graphics/SVG/1.1/DTD/svg11.dtd">
<svg t="1484127023760" class="icon" style="" viewBox="0 0 1024 1024" version="1.1" xmlns="http://www.w3.org/2000/svg" xmlns:xlink="http://www.w3.org/1999/xlink" width="200" height="200">
    <path d="M598.336 512.512l215.872-215.872c23.872-23.872 23.872-62.528 0-86.336-23.872-23.872-62.528-23.872-86.336 0L512 426.176 296.128 210.304c-23.872-23.872-62.528-23.872-86.336 0-23.808 23.808-23.808 62.528 0 86.336l215.872 215.872-215.872 215.872c-23.808 23.872-23.808 62.528 0 86.336 23.872 23.872 62.528 23.872 86.336 0L512 598.912l215.872 215.872c23.872 23.872 62.528 23.872 86.336 0 23.872-23.872 23.872-62.528 0-86.336L598.336 512.512z" id="shape"></path>
</svg>
