<?xml version="1.0" standalone="no"?>
<!DOCTYPE svg PUBLIC "-//W3C//DTD SVG 1.1//EN" "http://www.w3.org/Graphics/SVG/1.1/DTD/svg11.dtd">
<svg width="200" height="200" viewBox="0 0 200 200" version="1.1" xmlns="http://www.w3.org/2000/svg" xmlns:xlink="http://www.w3.org/1999/xlink">
    <g id="shape" transform="scale(0.1953125, 0.1953125)">
        <path d="M992 572l0-120-129.6-21.6c-9-39-24.4-75.4-45-108.4l76.4-107-84.8-84.8L702 206.6c-33-20.6-69.4-36-108.4-45L572 32l-120 0-21.6 129.6c-39 9-75.4 24.4-108.4 45l-107-76.4-84.8 84.8 76.4 107c-20.6 33-36 69.4-45 108.4L32 452l0 120 129.6 21.6c9 39 24.4 75.4 45 108.4l-76.4 107 84.8 84.8 107.2-76.4c33 20.6 69.4 36 108.2 45L452 992l120 0 21.6-129.6c39-9 75.4-24.4 108.4-45l107 76.4 84.8-84.8L817.4 702c20.6-33 36-69.4 45-108.4L992 572zM512 752c-132.6 0-240-107.4-240-240s107.4-240 240-240 240 107.4 240 240S644.6 752 512 752z"></path>
    </g>
</svg>
